<svg xmlns="http://www.w3.org/2000/svg" viewBox="0 0 800 800" width="100%" height="100%">
  <defs>
    <linearGradient id="bgGrad" x1="0%" y1="0%" x2="100%" y2="100%">
      <stop offset="0%" stop-color="#0B0F19" />
      <stop offset="100%" stop-color="#1A2235" />
    </linearGradient>

    <filter id="neonGlow" x="-20%" y="-20%" width="140%" height="140%">
      <feGaussianBlur stdDeviation="4" result="blur" />
      <feMerge>
        <feMergeNode in="blur" />
        <feMergeNode in="SourceGraphic" />
      </feMerge>
    </filter>
  </defs>

  <rect width="800" height="800" fill="url(#bgGrad)" />

  <g stroke="#38BDF8" stroke-width="1.5" opacity="0.3" fill="none">
    <path d="M 100 200 L 200 150 L 300 250 L 250 350 L 100 250 Z" />
    <path d="M 200 150 L 250 50" />
    <path d="M 300 250 L 400 200" />
    <path d="M 700 300 L 600 200 L 550 350 L 650 450 Z" />
    <path d="M 600 200 L 650 100" />
    <path d="M 550 350 L 450 400" />
  </g>
  <g fill="#38BDF8" opacity="0.6">
    <circle cx="100" cy="200" r="4" />
    <circle cx="200" cy="150" r="5" />
    <circle cx="300" cy="250" r="4" />
    <circle cx="250" cy="350" r="3" />
    <circle cx="700" cy="300" r="5" />
    <circle cx="600" cy="200" r="4" />
    <circle cx="550" cy="350" r="4" />
    <circle cx="650" cy="450" r="3" />
  </g>

  <g id="body">
    <path d="M 180 800 C 180 550, 300 500, 400 500 C 500 500, 620 550, 620 800 Z" fill="#1E293B" />
    <path d="M 350 500 L 400 600 L 450 500" fill="none" stroke="#10B981" stroke-width="4" filter="url(#neonGlow)" />
    <path d="M 250 800 L 350 600" fill="none" stroke="#334155" stroke-width="8" />
    <path d="M 550 800 L 450 600" fill="none" stroke="#334155" stroke-width="8" />
  </g>

  <g id="parrot" transform="translate(220, 450)">
    <path d="M 10 120 C 10 160, 30 180, 50 180 C 40 160, 40 140, 40 120 Z" fill="#15803D" />
    <ellipse cx="40" cy="80" rx="35" ry="55" fill="#22C55E" />
    <path d="M 20 60 C 5 90, 5 120, 20 140 C 40 120, 40 80, 20 60 Z" fill="#16A34A" />
    <path d="M 20 60 C 25 70, 35 70, 40 60 Z" fill="#EF4444" /> <circle cx="50" cy="35" r="28" fill="#22C55E" />
    <path d="M 40 15 Q 50 5 60 15 Q 60 25 40 25 Z" fill="#FDE047" /> <path d="M 75 30 Q 90 35 75 50 Q 80 40 65 40 Z" fill="#94A3B8" />
    <circle cx="60" cy="30" r="4" fill="#0F172A" />
    <circle cx="61" cy="29" r="1.5" fill="#FFFFFF" />
  </g>

  <g id="head">
    <rect x="350" y="400" width="100" height="110" fill="#C28A65" />
    <path d="M 300 250 C 300 150, 500 150, 500 250 L 485 380 C 475 450, 325 450, 315 380 Z" fill="#E0A985" />
    
    <path d="M 300 250 C 300 160, 500 160, 500 250 C 500 210, 300 210, 300 250 Z" fill="#292524" />
    <path d="M 295 250 Q 300 200 400 180 Q 500 200 505 250 L 500 270 Q 400 230 300 270 Z" fill="#1C1917" />
    
    <path d="M 300 300 C 280 300, 280 350, 310 360 Z" fill="#C28A65" />
    <path d="M 500 300 C 520 300, 520 350, 490 360 Z" fill="#C28A65" />

    <path d="M 320 300 L 380 310 L 375 315 L 320 305 Z" fill="#292524" />
    <path d="M 480 300 L 420 310 L 425 315 L 480 305 Z" fill="#292524" />

    <path d="M 325 330 Q 355 320, 385 330 Q 355 335, 325 330 Z" fill="#FFFFFF" />
    <circle cx="355" cy="328" r="5" fill="#0F172A" />
    <path d="M 475 330 Q 445 320, 415 330 Q 445 335, 475 330 Z" fill="#FFFFFF" />
    <circle cx="445" cy="328" r="5" fill="#0F172A" />

    <path d="M 400 330 L 390 375 L 405 380 Z" fill="#C28A65" opacity="0.5" />

    <path d="M 370 410 Q 400 415 430 410" fill="none" stroke="#8C5C40" stroke-width="3" stroke-linecap="round" />

    <rect x="315" y="310" width="75" height="40" rx="8" fill="none" stroke="#38BDF8" stroke-width="3" filter="url(#neonGlow)" />
    <rect x="410" y="310" width="75" height="40" rx="8" fill="none" stroke="#38BDF8" stroke-width="3" filter="url(#neonGlow)" />
    <line x1="390" y1="325" x2="410" y2="325" stroke="#38BDF8" stroke-width="3" />
    <line x1="295" y1="325" x2="315" y2="325" stroke="#38BDF8" stroke-width="4" />
    <line x1="485" y1="325" x2="505" y2="325" stroke="#38BDF8" stroke-width="4" />
  </g>
</svg>
